<?xml version="1.0" encoding="UTF-8" standalone="no"?>
<!-- Created with Inkscape (http://www.inkscape.org/) -->

<svg
   width="248.84346mm"
   height="8.6466265mm"
   viewBox="0 0 248.84346 8.6466265"
   version="1.1"
   id="svg5"
   inkscape:version="1.1.2 (b8e25be833, 2022-02-05)"
   sodipodi:docname="dessin-banniere-delimitation.svg"
   xmlns:inkscape="http://www.inkscape.org/namespaces/inkscape"
   xmlns:sodipodi="http://sodipodi.sourceforge.net/DTD/sodipodi-0.dtd"
   xmlns="http://www.w3.org/2000/svg"
   xmlns:svg="http://www.w3.org/2000/svg">
  <sodipodi:namedview
     id="namedview7"
     pagecolor="#000000"
     bordercolor="#666666"
     borderopacity="1.0"
     inkscape:pageshadow="2"
     inkscape:pageopacity="0"
     inkscape:pagecheckerboard="0"
     inkscape:document-units="mm"
     showgrid="false"
     inkscape:zoom="1.5554293"
     inkscape:cx="381.88814"
     inkscape:cy="23.787645"
     inkscape:window-width="2560"
     inkscape:window-height="1334"
     inkscape:window-x="-11"
     inkscape:window-y="-11"
     inkscape:window-maximized="1"
     inkscape:current-layer="layer1"
     fit-margin-top="0"
     fit-margin-left="0"
     fit-margin-right="0"
     fit-margin-bottom="0" />
  <defs
     id="defs2" />
  <g
     inkscape:label="Calque 1"
     inkscape:groupmode="layer"
     id="layer1"
     transform="translate(5.7971451,-107.50242)">
    <path
       style="fill:#ffffff;fill-opacity:0.870588;stroke-width:0.564999"
       id="path933"
       d="m -5.7971451,116.14894 c 2.1741029,-0.20285 4.2733627,-0.86166 6.40213819,-1.31328 0.86197711,-0.18287 1.72876991,-0.34225 2.59315501,-0.51338 6.124445,-1.06218 12.3554069,-1.47547 18.5680199,-1.30501 1.389836,0.0381 2.777415,0.13547 4.166122,0.20322 7.369721,0.53404 14.698589,1.56387 22.087664,1.84427 1.676135,0.0636 3.354035,0.0659 5.031054,0.0989 9.002601,0.11259 17.972416,-0.78016 26.96161,-1.08211 1.80943,-0.0608 3.620096,-0.0764 5.430142,-0.11458 1.767578,0.0203 3.535619,0.0156 5.302731,0.061 6.397766,0.16433 12.755489,0.81211 19.132829,1.2928 1.55379,0.11712 3.10902,0.2144 4.66353,0.3216 6.29561,0.44111 12.60957,0.36093 18.893,-0.21148 3.7305,-0.33984 5.796,-0.65421 9.52482,-1.14973 6.44452,-0.86066 12.88014,-1.91652 19.37492,-2.34032 3.9587,-0.25832 4.84438,-0.17474 8.74664,-0.12819 5.28029,0.16836 10.51539,0.96487 15.79771,1.1001 4.32118,0.11063 4.76404,-0.0213 9.19248,-0.30458 9.38673,-0.96515 18.72788,-2.34258 28.13861,-3.08183 1.92814,-0.15146 3.86014,-0.24892 5.79021,-0.37339 7.36613,-0.16471 3.73748,-0.18849 10.88605,0.0532 0,0 2.16003,-1.55936 2.16003,-1.55936 v 0 c -7.23534,-0.1951 -3.56805,-0.19003 -11.0019,5.2e-4 -1.93993,0.12909 -3.88151,0.23536 -5.81979,0.38725 -9.32343,0.7306 -18.5876,2.0254 -27.89507,2.91234 -4.2877,0.23866 -4.84968,0.36672 -9.04271,0.23657 -5.29272,-0.16429 -10.53884,-1.00732 -15.83667,-1.08871 -3.90816,-0.0222 -4.89944,-0.0985 -8.85789,0.17418 -1.58315,0.10905 -3.16213,0.27422 -4.74018,0.44151 -4.90233,0.5197 -9.78193,1.23262 -14.66439,1.90698 -3.5002,0.45718 -5.98018,0.81453 -9.48741,1.14141 -6.27107,0.58447 -12.57389,0.69101 -18.85854,0.23719 -9.74539,-0.70052 -19.487736,-1.67942 -29.270186,-1.58235 -1.811467,0.0365 -3.623566,0.0491 -5.434399,0.10934 -8.955291,0.29782 -17.892659,1.20262 -26.862073,1.03277 -1.654588,-0.0449 -3.310187,-0.0616 -4.963766,-0.13484 -7.353271,-0.32555 -14.646132,-1.35792 -21.979932,-1.92434 -1.383112,-0.0773 -2.764816,-0.18627 -4.149337,-0.23178 -6.116902,-0.20107 -12.254528,0.16604 -18.3098288,1.03921 -0.8315209,0.14155 -1.6653328,0.27026 -2.4945626,0.42467 -1.9921921,0.37097 -3.95577062,0.95334 -5.9836922,1.10184 0,0 -3.1911385,2.3185 -3.1911385,2.3185 z" />
  </g>
</svg>
